<svg xmlns="http://www.w3.org/2000/svg" width="320" height="96" viewBox="0 0 320 96" role="img" aria-labelledby="title desc">
  <title id="title">Al-Ikhlas Printing Logo Placeholder</title>
  <desc id="desc">Temporary logo placeholder. Replace with al-ikhlas-printing-logo.png when available.</desc>
  <rect width="320" height="96" rx="18" fill="#1F1F1F"/>
  <circle cx="48" cy="48" r="28" fill="#FD7C03"/>
  <path d="M38 61V35h8v19h12v7H38Z" fill="#fff"/>
  <path d="M68 62c-9 0-16-6-16-14s7-14 16-14c5 0 9 2 12 5l-5 5c-2-2-4-3-7-3-5 0-8 3-8 7s3 7 8 7c3 0 5-1 7-3l5 5c-3 3-7 5-12 5Z" fill="#fff"/>
  <text x="96" y="42" fill="#fff" font-family="Arial, Helvetica, sans-serif" font-size="22" font-weight="800">AL-IKHLAS</text>
  <text x="96" y="65" fill="#FD7C03" font-family="Arial, Helvetica, sans-serif" font-size="18" font-weight="800">PRINTING</text>
</svg>
